<svg width="62" height="20" viewBox="0 0 62 20" fill="none" xmlns="http://www.w3.org/2000/svg">
<path d="M9.5 19L5.85 12.375H4.825V19H0.55V1.45H7.725C9.10833 1.45 10.2833 1.69167 11.25 2.175C12.2333 2.65833 12.9667 3.325 13.45 4.175C13.9333 5.00833 14.175 5.94167 14.175 6.975C14.175 8.14167 13.8417 9.18333 13.175 10.1C12.525 11.0167 11.5583 11.6667 10.275 12.05L14.325 19H9.5ZM4.825 9.35H7.475C8.25833 9.35 8.84167 9.15833 9.225 8.775C9.625 8.39167 9.825 7.85 9.825 7.15C9.825 6.48333 9.625 5.95833 9.225 5.575C8.84167 5.19167 8.25833 5 7.475 5H4.825V9.35ZM23.2086 19.2C21.8419 19.2 20.6086 18.9083 19.5086 18.325C18.4253 17.7417 17.5669 16.9083 16.9336 15.825C16.3169 14.7417 16.0086 13.475 16.0086 12.025C16.0086 10.5917 16.3253 9.33333 16.9586 8.25C17.5919 7.15 18.4586 6.30833 19.5586 5.725C20.6586 5.14167 21.8919 4.85 23.2586 4.85C24.6253 4.85 25.8586 5.14167 26.9586 5.725C28.0586 6.30833 28.9253 7.15 29.5586 8.25C30.1919 9.33333 30.5086 10.5917 30.5086 12.025C30.5086 13.4583 30.1836 14.725 29.5336 15.825C28.9003 16.9083 28.0253 17.7417 26.9086 18.325C25.8086 18.9083 24.5753 19.2 23.2086 19.2ZM23.2086 15.5C24.0253 15.5 24.7169 15.2 25.2836 14.6C25.8669 14 26.1586 13.1417 26.1586 12.025C26.1586 10.9083 25.8753 10.05 25.3086 9.45C24.7586 8.85 24.0753 8.55 23.2586 8.55C22.4253 8.55 21.7336 8.85 21.1836 9.45C20.6336 10.0333 20.3586 10.8917 20.3586 12.025C20.3586 13.1417 20.6253 14 21.1586 14.6C21.7086 15.2 22.3919 15.5 23.2086 15.5ZM31.9266 12.025C31.9266 10.575 32.2182 9.30833 32.8016 8.225C33.4016 7.14167 34.2266 6.30833 35.2766 5.725C36.3432 5.14167 37.5599 4.85 38.9266 4.85C40.6766 4.85 42.1349 5.30833 43.3016 6.225C44.4849 7.14167 45.2599 8.43333 45.6266 10.1H41.0766C40.6932 9.03333 39.9516 8.5 38.8516 8.5C38.0682 8.5 37.4432 8.80833 36.9766 9.425C36.5099 10.025 36.2766 10.8917 36.2766 12.025C36.2766 13.1583 36.5099 14.0333 36.9766 14.65C37.4432 15.25 38.0682 15.55 38.8516 15.55C39.9516 15.55 40.6932 15.0167 41.0766 13.95H45.6266C45.2599 15.5833 44.4849 16.8667 43.3016 17.8C42.1182 18.7333 40.6599 19.2 38.9266 19.2C37.5599 19.2 36.3432 18.9083 35.2766 18.325C34.2266 17.7417 33.4016 16.9083 32.8016 15.825C32.2182 14.7417 31.9266 13.475 31.9266 12.025ZM56.4383 19L52.1883 13.15V19H47.9133V0.5H52.1883V10.725L56.4133 5.05H61.6883L55.8883 12.05L61.7383 19H56.4383Z" fill="#3D94FF"/>
</svg>
