<svg width="36" height="35" viewBox="0 0 36 35" fill="none" xmlns="http://www.w3.org/2000/svg">
<ellipse cx="17.9999" cy="17.5" rx="15.9091" ry="15.9091" fill="#707070"/>
<path d="M23.8332 13.3333C23.8332 15.1014 23.2186 16.7971 22.1246 18.0473C21.0307 19.2976 19.5469 20 17.9998 20C16.4527 20 14.969 19.2976 13.875 18.0473C12.7811 16.7971 12.1665 15.1014 12.1665 13.3333C12.1665 11.5652 12.7811 9.86949 13.875 8.61925C14.969 7.36901 16.4527 6.66663 17.9998 6.66663C19.5469 6.66663 21.0307 7.36901 22.1246 8.61925C23.2186 9.86949 23.8332 11.5652 23.8332 13.3333Z" fill="#F7F7F7"/>
<path fill-rule="evenodd" clip-rule="evenodd" d="M0.5 17.5C0.5 12.8587 2.34374 8.40752 5.62563 5.12563C8.90752 1.84374 13.3587 0 18 0C22.6413 0 27.0925 1.84374 30.3744 5.12563C33.6563 8.40752 35.5 12.8587 35.5 17.5C35.5 22.1413 33.6563 26.5925 30.3744 29.8744C27.0925 33.1563 22.6413 35 18 35C13.3587 35 8.90752 33.1563 5.62563 29.8744C2.34374 26.5925 0.5 22.1413 0.5 17.5ZM18 2.1875C15.1164 2.18765 12.2914 3.00204 9.85026 4.53694C7.40908 6.07183 5.45093 8.26484 4.20117 10.8635C2.95141 13.4623 2.46085 16.3611 2.78593 19.2263C3.11102 22.0915 4.23855 24.8067 6.03875 27.0594C7.59188 24.5569 11.0109 21.875 18 21.875C24.9891 21.875 28.4059 24.5547 29.9613 27.0594C31.7614 24.8067 32.889 22.0915 33.2141 19.2263C33.5392 16.3611 33.0486 13.4623 31.7988 10.8635C30.5491 8.26484 28.5909 6.07183 26.1497 4.53694C23.7086 3.00204 20.8836 2.18765 18 2.1875Z" fill="#F7F7F7"/>
</svg>
